inDegrees=no
num_controls=7
num_derivatives=13
num_iterations=118
num_multipliers=7
num_parameters=0
num_slacks=7
num_states=26
objective=0.476744
objective_accelerations=0.045185
objective_balance=0.003584
objective_effort=0.040919
objective_height=0.381405
objective_ligament=0.005652
solver_duration=1654.098079
status=Solve_Succeeded
success=true
DataType=double
version=3
OpenSimVersion=4.5
endheader
time	/jointset/ground_pelvis/pelvis_tilt/value	/jointset/ground_pelvis/pelvis_tx/value	/jointset/ground_pelvis/pelvis_ty/value	/jointset/hip_l/hip_flexion_l/value	/jointset/hip_l/hip_adduction_l/value	/jointset/hip_l/hip_rotation_l/value	/jointset/back/lumbar_extension/value	/jointset/patellofemoral_l/patellar_flexion_l/value	/jointset/knee_l/knee_flexion_l/value	/jointset/knee_l/knee_adduction_l/value	/jointset/knee_l/knee_rotation_l/value	/jointset/ankle_l/ankle_angle_l/value	/jointset/subtalar_l/subtalar_angle_l/value	/jointset/ground_pelvis/pelvis_tilt/speed	/jointset/ground_pelvis/pelvis_tx/speed	/jointset/ground_pelvis/pelvis_ty/speed	/jointset/hip_l/hip_flexion_l/speed	/jointset/hip_l/hip_adduction_l/speed	/jointset/hip_l/hip_rotation_l/speed	/jointset/back/lumbar_extension/speed	/jointset/patellofemoral_l/patellar_flexion_l/speed	/jointset/knee_l/knee_flexion_l/speed	/jointset/knee_l/knee_adduction_l/speed	/jointset/knee_l/knee_rotation_l/speed	/jointset/ankle_l/ankle_angle_l/speed	/jointset/subtalar_l/subtalar_angle_l/speed	/forceset/tau_hip_flexion_l	/forceset/tau_hip_adduction_l	/forceset/tau_hip_rotation_l	/forceset/tau_knee_flexion_l	/forceset/tau_ankle_angle_l	/forceset/tau_subtalar_angle_l	/forceset/tau_lumbar_extension	lambda_cid13_p0	lambda_cid13_p1	lambda_cid13_p2	lambda_cid13_p3	lambda_cid13_p4	lambda_cid13_p5	lambda_cid14_p0	/jointset/ground_pelvis/pelvis_tilt/accel	/jointset/ground_pelvis/pelvis_tx/accel	/jointset/ground_pelvis/pelvis_ty/accel	/jointset/hip_l/hip_flexion_l/accel	/jointset/hip_l/hip_adduction_l/accel	/jointset/hip_l/hip_rotation_l/accel	/jointset/back/lumbar_extension/accel	/jointset/patellofemoral_l/patellar_flexion_l/accel	/jointset/knee_l/knee_flexion_l/accel	/jointset/knee_l/knee_adduction_l/accel	/jointset/knee_l/knee_rotation_l/accel	/jointset/ankle_l/ankle_angle_l/accel	/jointset/subtalar_l/subtalar_angle_l/accel	gamma_cid13_p0	gamma_cid13_p1	gamma_cid13_p2	gamma_cid13_p3	gamma_cid13_p4	gamma_cid13_p5	gamma_cid14_p0
0.5	-0.09559189768214116	-0.04126410760240769	0.8045076130673247	0.9386414666084252	-0.3294987803491053	-0.07618080958883967	-0.7908244540461163	0.9324749408894152	0.9324749408893911	-0.1009740534921435	-0.1744958254578258	0.1545423421390218	0.01551968276381983	-0.1283286218582528	-0.1571865737378034	-0.4257735425951968	1.620449331179219	-0.02839350824714174	0.5679375420549364	-0.8384484117677754	1.810537622305344	1.810537622305295	0.1561021388382146	0.000128366674776551	0.4419451731641899	0.1208576948197432	-0.2718280098447982	0.02521034028862801	-0.00509719785291479	-0.2489536399649372	0.08354079343496079	0.04222576771284312	0.3276427179506048	-17.27693701966712	-16.77542135616389	3.889922986276769	-8.84227474537153	-700.639446497712	-71.55899866992449	-9.29581015092664	0.2950688271456641	0.6682610989944368	-0.2067242036082898	-1.503812273282465	0.3331136292268497	-0.5229897074158959	1.889939929760744	-1.441399141243386	-1.44139914124338	-0.2153127664167484	-0.004735714824961746	-0.3059639453677825	0.3343185138234658	-2.682464153731845e-07	-1.453006793640062e-07	1.632790210293237e-06	1.566027516354875e-07	-2.995672297861328e-07	-8.34211392576686e-08	-2.286052042512569e-07
0.51	-0.09686021698624329	-0.04280253248125489	0.8002405024231182	0.9547682825812177	-0.3297669187369434	-0.07052659545392145	-0.7991135325316906	0.9505053898346465	0.9505053898346576	-0.09942650373741707	-0.1744946462167643	0.158945412660446	0.01674363245531712	-0.1253140109280025	-0.1504971118733185	-0.4275502424839942	1.604686711155051	-0.02524238573748435	0.562838611098618	-0.8192753745314757	1.795291626763745	1.795291626763657	0.1534039530341861	0.0001063957665128452	0.4385960585383931	0.1239031619607004	-0.2782014773515943	0.02556955537411999	-0.005228952357305739	-0.2525933934977057	0.08233043945025753	0.0422682952373536	0.3340347194542195	-17.93683473304789	-16.60954379423751	3.784886145083366	-8.578226594855447	-705.3442402852152	-71.36865657539803	-8.557540661005111	0.3078168166234643	0.6695137225609534	-0.1484493318785464	-1.646592556380608	0.3046552490013188	-0.513555921689221	1.944772242872888	-1.605235979328441	-1.605235979334179	-0.29764317247338	-0.0007714428544631224	-0.360312968203224	0.2851279243148597	-2.598371455011941e-07	-1.470252266456783e-07	1.5963160920098e-06	1.517324199729632e-07	-2.868864926671852e-07	-5.361298592424712e-08	-2.252945218660582e-07
0.52	-0.09809775826290969	-0.04427401774298006	0.7959585634899512	0.9707306512158906	-0.3300038371622518	-0.06492541285495791	-0.8072081233204398	0.9683755715807181	0.9683755715807659	-0.09790605017774119	-0.1744936554175929	0.1633128064862085	0.01799713024024057	-0.1221730163714063	-0.1437986503133973	-0.428739200387313	1.587559863555021	-0.02214951574117923	0.5573312348643222	-0.7995508724028479	1.778484182473736	1.77848418247361	0.1506828998270575	9.067829715424765e-05	0.4348098340318926	0.1267673135049782	-0.2845749448583907	0.02592877045960643	-0.005360706861653742	-0.2562331470304756	0.08112008546555199	0.04231082276185612	0.3404267209578353	-18.59858875234413	-16.44353330144978	3.680049034993016	-8.35855910537089	-710.1076161909372	-71.23192560225949	-7.8223684448793	0.3203455524148305	0.6700610380817292	-0.08917580651256371	-1.776657788454826	0.3214631265563963	-0.6046787630113636	2.000232908226314	-1.753688890925289	-1.753688890925287	-0.2198862470367738	-0.003485027043945801	-0.3933859215085165	0.2980553944876015	-2.571787966634552e-07	-2.041952844552524e-07	1.552918626730049e-06	1.403967519073496e-07	-2.804475828433467e-07	-4.188298747347719e-08	-2.281337327273915e-07
0.53	-0.09930329061081584	-0.04567851870631401	0.791667694248992	0.9865150356636946	-0.3302101872975047	-0.05938147918557644	-0.8151028858891682	0.9860700299133762	0.9860700299134066	-0.09641286383647235	-0.1744930269353875	0.1676402331712603	0.01927829259863462	-0.1189157977935908	-0.1371042131118348	-0.4293346806851566	1.569099503829821	-0.01913226388627074	0.5513942672360534	-0.7793254050888355	1.760161232588209	1.7601612325881	0.1479494544766081	3.526433567988724e-05	0.4306118903084246	0.1294339630979206	-0.2906115225315928	0.02612049046776927	-0.005447206605430958	-0.2601214831588258	0.08014280453715079	0.04219520791350239	0.3465119143041245	-19.18845840099523	-16.2136690586196	3.556167881056008	-8.11569114863341	-714.7760809532472	-71.02224902236479	-7.111210332419574	0.3310348336274486	0.6687613359907124	-0.02979448661585265	-1.913384455251699	0.2898926660538407	-0.5976031069102801	2.045139081064475	-1.908489832818164	-1.908489832815797	-0.3008316314299841	-0.006229315106175825	-0.4425428081497995	0.246148475258133	-2.475277056692156e-07	-2.041851934945022e-07	1.509533662247849e-06	1.349711047284405e-07	-2.674866258692981e-07	-1.388434911910494e-08	-2.236159020404511e-07
0.54	-0.10047572580831	-0.0470161500426728	0.7873738581360152	1.002108284636108	-0.3303867576239895	-0.05389879466131296	-0.8227931066971413	1.003573880388088	1.003573880388102	-0.09494716353918353	-0.1744928845396776	0.1719237715770007	0.02058515719967019	-0.1155535862892784	-0.1304247249183667	-0.4293325747908226	1.549332768476656	-0.01619355398753073	0.5450814058407587	-0.7586425202517963	1.740362610884609	1.740362610884515	0.1451856910309199	-6.539002073796856e-06	0.4260321781696023	0.1319077620332861	-0.2966481002047939	0.02631221047593091	-0.005533706349202685	-0.264009819287176	0.07916552360874886	0.04207959306514687	0.3525971076504149	-19.7796566247755	-15.98710008520757	3.436843125482673	-7.92355228114826	-719.4906211558401	-70.8702190587732	-6.436305492502788	0.3413441377142052	0.6670712364628768	0.03034143192294448	-2.037932914047843	0.3057547353227008	-0.6798575164165721	2.091716412831618	-2.048823254539978	-2.048823254539979	-0.2259498660845354	-0.0007629022998128301	-0.4697396045793677	0.2594852629722135	-2.301399637784217e-07	-1.409119592133922e-07	1.46616252843528e-06	1.36084204062481e-07	-2.473097869418254e-07	3.211363551159349e-08	-2.109583658107397e-07
0.55	-0.1016140486070815	-0.04828712779856768	0.7830830315003525	1.017497514623759	-0.3305342694645567	-0.04848105533600653	-0.8302743336981833	1.020872550945304	1.020872550945268	-0.09350911774537832	-0.1744930218584665	0.1761596935528934	0.02191588169906772	-0.1120938581526515	-0.1237796584503124	-0.4287320914524185	1.528303758374733	-0.01332466355785828	0.5384024587905163	-0.7375417683191339	1.719136995516192	1.719136995516082	0.1424199336324488	-2.562322100391459e-05	0.4210928252430309	0.1342013514926614	-0.3024840025050191	0.0264366916405234	-0.005572919584343199	-0.2678666305770394	0.07798998669942196	0.04184534350601748	0.3584379758868986	-20.43574823590814	-15.69366702739206	3.302312489443758	-7.5786992809225	-724.0756956147316	-70.63048049098356	-5.798427454113392	0.3508338089891979	0.6619268618170292	0.08995365735524678	-2.166833186223241	0.2748786511320168	-0.6716991267607375	2.128421329077464	-2.194565623495214	-2.194565623497666	-0.302426908810203	-0.002898165894986557	-0.5149382899182999	0.2087754528213748	-2.117744149995961e-07	-7.631099548964239e-08	1.417747673686346e-06	1.367849631918585e-07	-2.267333826736951e-07	7.620843569630962e-08	-1.973187771374845e-07
0.5600000000000001	-0.1027172647930149	-0.04949191438781385	0.7788012200725849	1.032670164884801	-0.3306536079099589	-0.04313206264668922	-0.8375427198307795	1.037951938359735	1.037951938359649	-0.09209883717197066	-0.1744934334162871	0.180344440968876	0.02326843802613924	-0.108532263721938	-0.1171864915886277	-0.427529533211769	1.506016823154462	-0.010558874954485	0.5313320786429671	-0.716074346562719	1.69650598232767	1.696505982327544	0.139632646950705	-6.138680814827318e-05	0.4157972661875683	0.1362741275680843	-0.308319904805243	0.02656117280511509	-0.005612132819452029	-0.2717234418669032	0.07681444979009423	0.04161109394688634	0.3642788441233837	-21.09407984064328	-15.40299293248579	3.171822403790527	-7.279877331170453	-728.7163368428164	-70.44470687494893	-5.198003234928541	0.3617173965315084	0.6566913151889763	0.150756412372036	-2.289517937717387	0.2851343700628657	-0.7581441358779216	2.165050377582098	-2.329902818560846	-2.329902818560837	-0.230255722739065	-0.004098775942660929	-0.5409808303576263	0.2153225861817281	-1.922354979551326e-07	-1.011675643472458e-08	1.363280353813771e-06	1.369909140756405e-07	-2.056774999967754e-07	1.180194145458471e-07	-1.825007255319769e-07
0.5700000000000001	-0.1037844169489728	-0.05063107822906143	0.7745344328106589	1.047613860677531	-0.3307457041917332	-0.0378556036950049	-0.8445947179390594	1.054798187028428	1.054798187028023	-0.09071639956412066	-0.1744941203591515	0.1844745711641875	0.0246407569713533	-0.1048838522019266	-0.1106595421377704	-0.4257277055301571	1.482522887301068	-0.007878725323842152	0.5239009573428509	-0.6942796381024577	1.672522493616348	1.672522493616287	0.1368488034049709	-7.882749761777527e-05	0.4101762335068314	0.1381518893065103	-0.3138218514870091	0.0265356851467449	-0.005601083261202137	-0.2756631934885492	0.07565961898507517	0.04128819169809748	0.3697759357301796	-21.74081356172566	-15.07257995168862	3.031263064996055	-6.904301642343902	-733.1593196762549	-70.22612775962735	-4.635188743987118	0.3685329614289873	0.6487343600068148	0.2098892391360032	-2.409272108251332	0.2565075584574363	-0.7445642346334309	2.193526628847767	-2.465725742842405	-2.465725742832632	-0.3033527608719775	-0.0007226682385105846	-0.5805354695473744	0.1681760614747767	-1.719878178101163e-07	5.195334049469381e-08	1.301269738333596e-06	1.356422625152779e-07	-1.840531016629061e-07	1.562005866845182e-07	-1.671218559556511e-07
0.58	-0.1048146590033907	-0.05170536505580581	0.7702886624841648	1.062316628971907	-0.3308115885174225	-0.03265524957783326	-0.8514273998530166	1.071397970040921	1.071397970040199	-0.08936198120980035	-0.1744950128994699	0.1885469168361684	0.02603068815271196	-0.1011502434141978	-0.1042110886879874	-0.423326146125335	1.457831323483639	-0.005316483737500745	0.5161111117405354	-0.6722111076982149	1.647212851088047	1.647212851088051	0.1340287962439808	-0.0001025062986630786	0.4042403615214689	0.1397965747970062	-0.3193237981687749	0.02651019748837341	-0.005590033702911315	-0.2796029451101957	0.07450478818005513	0.04096528944930602	0.375273027336976	-22.390721423548	-14.7443966745607	2.894242091431025	-6.570116470382472	-737.6681738436703	-70.05692693100043	-4.110144850445173	0.3787568500749617	0.6409921149741292	0.2707027570141112	-2.529043530524443	0.2615527612025796	-0.8298889963178404	2.219814766378411	-2.595133581956605	-2.595133581956647	-0.2374884457902333	-0.005346398257819011	-0.6039486912827219	0.1687073365957125	-1.508170973481013e-07	1.086524616327637e-07	1.229435296015617e-06	1.322690124230062e-07	-1.616883108455678e-07	1.896545686881074e-07	-1.510126187894231e-07
0.59	-0.105807210858773	-0.0527156041763174	0.7660698888453567	1.076766693640039	-0.3308523174927758	-0.02753461130432871	-0.8580381407131057	1.087738202130931	1.087738202130211	-0.08803567235693899	-0.1744960571613318	0.1925584430882255	0.02743606901958033	-0.09734947882397414	-0.09785400465491258	-0.4203291834018283	1.431991423756925	-0.002849244919592002	0.5079537064615831	-0.6499069674079205	1.620622826551963	1.620622826552081	0.1312317633909805	-0.0001110203229292805	0.3980180895653683	0.1412405884660259	-0.3244539335114408	0.02640368649990301	-0.005529572737091129	-0.2836178337371276	0.07341122859209252	0.04051993686656385	0.3803914244175363	-23.01499590185385	-14.36167913701112	2.741852386272191	-6.169694406994626	-741.9423160899564	-69.81849032771579	-3.621920606518908	0.3823197959605822	0.6305022199589033	0.3290730480545683	-2.640010123287386	0.2361350861572478	-0.8182139979866706	2.240228197088225	-2.722519628761177	-2.722519628743978	-0.3009731118964061	0.0009359642258348407	-0.6383709287292049	0.1262342688195861	-1.304687673453281e-07	1.549432029093059e-07	1.151443160396088e-06	1.27220457028036e-07	-1.401016325690895e-07	2.16155087726405e-07	-1.35333862374662e-07
